<?xml version="1.0" encoding="UTF-8"?>
<svg width="15px" height="18px" viewBox="0 0 15 18" version="1.1" xmlns="http://www.w3.org/2000/svg" xmlns:xlink="http://www.w3.org/1999/xlink">
    <title>discord</title>
    <g id="Page-1" stroke="none" stroke-width="1" fill="none" fill-rule="evenodd">
        <g id="FRONTPAGE" transform="translate(-1517.000000, -61.000000)" fill="#FFFFFF">
            <g id="Group-53" transform="translate(380.000000, 47.000000)">
                <g id="NAVIGATION+SOCIAL" transform="translate(799.000000, 4.500000)">
                    <g id="Group-1" transform="translate(276.285714, 0.000000)">
                        <g id="discord" transform="translate(52.000000, 0.000000)">
                            <path d="M22.9571435,9.5 C23.9257142,9.5 24.7142857,10.2885715 24.7142857,11.265714 L24.7142857,26.6428571 L22.8714273,25.0142852 L21.834284,24.0542853 L20.737143,23.0342857 L21.1914285,24.6199995 L11.4714289,24.6199995 C10.5028572,24.6199995 9.71428571,23.831428 9.71428571,22.8542865 L9.71428571,11.265714 C9.71428571,10.2885715 10.5028572,9.5 11.4714289,9.5 L22.9571435,9.5 Z M18.3494164,13.0681247 L18.2312221,13.2009821 L19.988647,14.0824514 L19.7510198,13.9745812 C19.075575,13.6858701 18.4160186,13.5294349 17.7922123,13.458393 C17.1843528,13.3919642 16.6018211,13.4085712 16.0868293,13.4749999 C16.0426051,13.4749999 16.0048169,13.4813281 15.9622271,13.488461 L15.9622271,13.488461 L15.9433074,13.4916068 L15.8677324,13.4989202 C15.5363197,13.5347954 14.8607205,13.6544849 14.0268624,14.0147325 C13.8186147,14.1088394 13.6525791,14.1891071 13.5287555,14.2555354 C13.9959062,13.818214 14.7360311,13.455625 15.7491301,13.1677682 L15.7491301,13.1677682 L15.6647053,13.0681247 L15.4539221,13.0712128 C14.7496832,13.1068974 14.0291645,13.3964931 13.2923658,13.9399998 C12.4818866,15.3848208 12.076647,16.998481 12.076647,18.7809805 C12.5494263,19.5836603 13.4077462,20.0043751 14.6516066,20.043125 C14.859855,19.7940174 15.048404,19.5642854 15.2172536,19.353929 C14.5024564,19.1435712 14.0099777,18.816964 13.7398175,18.3741073 C13.7961007,18.4128571 13.8748973,18.4599106 13.9762072,18.5152677 C13.98465,18.5235707 13.9930919,18.5318756 14.0099777,18.5401786 L14.0099777,18.5401786 L14.0289756,18.551338 L14.0479742,18.56094 C14.060636,18.5671662 14.0732978,18.5733944 14.0859596,18.5816954 C14.2970216,18.6979469 14.5080846,18.7892855 14.7022619,18.8640162 C15.048404,18.9968736 15.4620852,19.129731 15.9433074,19.2210716 C16.5764934,19.3373211 17.3194329,19.3788399 18.1299115,19.2293745 C18.5267079,19.1629468 18.9319482,19.0466954 19.3540722,18.8723211 C19.64956,18.7643746 19.9788154,18.6066083 20.3249585,18.3824103 C20.0435424,18.8363389 19.534179,19.1657138 18.7968681,19.3705349 C18.9657177,19.5808927 19.1514524,19.8050893 19.3540722,20.043125 C20.5979319,20.0043751 21.4590658,19.5836603 21.9374737,18.7809805 C21.9374737,16.998481 21.5322348,15.3848208 20.7217569,13.9399998 C19.9112777,13.3421425 19.1204975,13.0515174 18.3494164,13.0681247 L18.3494164,13.0681247 Z M15.4283167,16.165357 C15.9095389,16.165357 16.2978934,16.5805352 16.2894505,17.087054 C16.2894505,17.5935707 15.9095389,18.0087489 15.4283167,18.0087489 C14.9555373,18.0087489 14.5671828,17.5935707 14.5671828,17.087054 C14.5671828,16.5805352 14.9470955,16.165357 15.4283167,16.165357 Z M18.5098241,16.165357 C18.9910473,16.165357 19.37096,16.5805352 19.37096,17.087054 C19.37096,17.5935707 18.9910473,18.0087489 18.5098241,18.0087489 C18.0370448,18.0087489 17.6486903,17.5935707 17.6486903,17.087054 C17.6486903,16.5805352 18.0286029,16.165357 18.5098241,16.165357 Z" id="discord-2"></path>
                        </g>
                    </g>
                </g>
            </g>
        </g>
    </g>
</svg>