<?xml version="1.0" encoding="UTF-8"?>
<svg width="18px" height="16px" viewBox="0 0 18 16" version="1.1" xmlns="http://www.w3.org/2000/svg" xmlns:xlink="http://www.w3.org/1999/xlink">
    <title>githab</title>
    <g id="Page-1" stroke="none" stroke-width="1" fill="none" fill-rule="evenodd">
        <g id="FRONTPAGE" transform="translate(-1463.000000, -60.000000)" fill="#FFFFFF">
            <g id="Group-53" transform="translate(380.000000, 47.000000)">
                <g id="NAVIGATION+SOCIAL" transform="translate(799.000000, 4.500000)">
                    <g id="github" transform="translate(276.285714, 0.000000)">
                        <path d="M16.6891282,8.50210979 C21.2156061,8.50210979 24.8870408,12.173572 24.9373559,16.7000342 C24.9373559,20.3212009 22.6238019,23.3891366 19.3546998,24.4956024 C18.9523671,24.545898 18.8014845,24.2944283 18.8014845,24.0932541 L18.8014845,21.8300229 C18.8014845,21.07561 18.5500344,20.5726706 18.2482693,20.3212009 C20.0588604,20.1200267 21.9700191,19.4662047 21.9700191,16.2976819 C21.9700191,15.3923903 21.6179388,14.6379773 21.1150386,14.0847463 C21.118991,14.0689444 21.1245119,14.0491077 21.1310993,14.0254284 C21.2080777,13.7476876 21.4314843,12.9416538 21.0144084,11.9221023 C20.5450098,11.7879862 19.7905968,12.0729862 18.7511694,12.7771024 C18.0973867,12.6262198 17.393226,12.5256287 16.6891282,12.5256287 C15.9850303,12.5256287 15.2809324,12.5759243 14.6270869,12.7771024 C13.5876595,12.0729862 12.8332465,11.7879862 12.3638479,11.9221023 C11.9193559,13.0086726 12.2023628,13.8527369 12.2603318,14.0256323 C11.7100024,14.6379773 11.4082372,15.3420948 11.4082372,16.2473864 C11.4082372,19.4159092 13.3194586,20.1200267 15.1300498,20.3212009 C14.9288521,20.522379 14.677402,20.8744358 14.6270869,21.4276707 C14.1744391,21.6288448 13.0176934,21.9809055 12.2632804,20.7235532 C11.9615152,20.1870835 11.5423899,19.9020847 11.0059045,19.868557 C10.469461,19.868557 10.4527102,20.0362035 10.9556522,20.3714964 C11.3244624,20.5391429 11.6262066,20.9414951 11.860885,21.5785533 C12.1961936,22.6514927 13.1182609,23.0203146 14.6270869,22.6850191 L14.6270869,24.0932541 C14.6270869,24.2944283 14.4762043,24.545898 14.0738716,24.4956024 C10.8550219,23.3891366 8.49121549,20.3212009 8.49121549,16.7000342 C8.49121549,12.173572 12.1626502,8.50210979 16.6891282,8.50210979 Z" id="githab"></path>
                    </g>
                </g>
            </g>
        </g>
    </g>
</svg>